<?xml version="1.0" encoding="utf-8"?>
<!-- Generator: Adobe Illustrator 16.0.0, SVG Export Plug-In . SVG Version: 6.00 Build 0)  -->
<!DOCTYPE svg PUBLIC "-//W3C//DTD SVG 1.1//EN" "http://www.w3.org/Graphics/SVG/1.1/DTD/svg11.dtd">
<svg version="1.1" id="Layer_1" xmlns="http://www.w3.org/2000/svg" xmlns:xlink="http://www.w3.org/1999/xlink" x="0px" y="0px"
	 width="500px" height="500px" viewBox="0 0 500 500" enable-background="new 0 0 500 500" xml:space="preserve">
<g id="Layer_1_copy_33">
	<g>
		<path fill="#4E4E4E" d="M450.064,266.411c0,49.503-91.175,89.637-203.639,89.637c-112.466,0-203.641-40.134-203.641-89.637
			c0-49.509,91.175-89.643,203.641-89.643C358.891,176.768,450.064,216.901,450.064,266.411z"/>
		<path fill="#211010" d="M246.427,359.454c-54.858,0-106.479-9.427-145.365-26.543c-39.773-17.507-61.678-41.124-61.678-66.5
			c0-25.377,21.904-48.996,61.678-66.506c38.887-17.117,90.507-26.543,145.365-26.543c54.856,0,106.48,9.426,145.367,26.543
			c39.771,17.51,61.677,41.128,61.677,66.506c0,25.376-21.906,48.993-61.677,66.5C352.907,350.027,301.283,359.454,246.427,359.454z
			 M246.427,180.177c-110.408,0-200.23,38.684-200.23,86.234c0,47.547,89.822,86.228,200.23,86.228
			c110.405,0,200.229-38.681,200.229-86.228C446.656,218.861,356.832,180.177,246.427,180.177z"/>
	</g>
	<g>
		<path fill="#818181" d="M229.732,140.403c78.422-3.733,148.215,12.736,194.152,45.519c25.925,18.498,56.222,55.811,37.16,100.329
			c-3.616,8.435-8.445,17.742-14.864,25.083c-60.793,69.497-231.906,84.713-333.495,40.87c-34.883-15.05-64.16-35.128-77.103-64.095
			c-22.948-51.353,17.581-90.872,49.235-109.622c24.135-14.297,54.054-25.947,88.249-32.513
			C190.292,142.667,209.984,141.342,229.732,140.403z M173.993,183.134c-34.144,6.835-62.907,17.615-86.392,36.227
			c-9.076,7.201-23.261,23.595-23.222,39.021c0.042,18.179,14.166,30.858,26.009,39.94c61.419,47.128,188.192,56.029,272.186,24.156
			c25.712-9.76,69.673-31.853,69.673-64.098c0-18.563-14.827-32.697-28.801-42.731c-42.626-30.633-105.461-42.224-172.781-39.021
			C209.955,177.618,191.687,179.594,173.993,183.134z"/>
		<path fill="#3C2517" d="M247.56,380.273c-50.58,0-98.962-8.858-136.225-24.942c-41.224-17.788-67.018-39.321-78.863-65.832
			c-10.715-23.987-9.259-47.595,4.334-70.183c13.303-22.1,34.706-36.9,46.275-43.758c25.783-15.269,56.678-26.654,89.341-32.926
			c17.7-3.399,37.926-4.715,57.15-5.63c7.309-0.351,14.664-0.527,21.86-0.527c70.309,0,132.254,16.578,174.433,46.674
			c30.744,21.939,56.956,60.898,38.312,104.445c-4.711,11.002-9.763,19.498-15.433,25.982
			C412.762,354.716,335.671,380.273,247.56,380.273z M251.434,143.289c-7.09,0-14.336,0.173-21.542,0.517
			c-18.969,0.906-38.905,2.199-56.18,5.52c-31.905,6.121-62.044,17.222-87.161,32.095c-69.634,41.249-54.236,91.024-47.86,105.294
			c11.117,24.881,35.763,45.279,75.346,62.365c36.431,15.725,83.85,24.379,133.523,24.379c86.205,0,161.325-24.664,196.057-64.365
			c5.191-5.938,9.871-13.849,14.297-24.184c17.052-39.827-7.416-75.818-36.004-96.213
			C380.876,159.415,320.334,143.289,251.434,143.289z M249.463,344.729c0,0,0,0-0.003,0c-65.243,0-125.484-16.34-161.146-43.701
			c-13.495-10.354-27.299-23.514-27.344-42.639c-0.04-17.569,16.018-34.955,24.515-41.694c22.25-17.634,50.157-29.359,87.841-36.9
			c17.188-3.439,35.354-5.526,57.175-6.566c7.236-0.344,14.48-0.518,21.534-0.518c63.781,0,116.823,13.892,153.399,40.173
			c20.331,14.608,30.219,29.491,30.219,45.499c0,36.108-50.261,59.083-71.868,67.285
			C330.918,338.135,291.387,344.729,249.463,344.729z M252.035,179.522c-6.946,0-14.081,0.173-21.21,0.51
			c-21.473,1.024-39.319,3.072-56.161,6.442c-36.584,7.322-63.578,18.622-84.946,35.56c-8.832,7.008-21.968,22.463-21.933,36.338
			c0.036,16.172,12.494,27.907,24.679,37.248c34.51,26.483,93.202,42.289,156.996,42.292c40.521,0,80.264-6.607,111.903-18.615
			c60.901-23.109,67.479-50.302,67.479-60.915c0-13.656-8.959-26.729-27.381-39.966
			C366.053,192.973,314.382,179.522,252.035,179.522z"/>
	</g>
	<g>
		<path fill="#DDB391" d="M365.116,223.477c0,0,0.949,16.81-2.542,24.423c-3.484,7.618-124.342,11.741-132.904,6.027
			c-8.565-5.71-9.553-14.562-5.255-21.24c4.299-6.675,47.126-47.275,47.126-47.275l93.144,36.92"/>
	</g>
	<g>
		<path fill="#E5CCB5" d="M367.021,191.078c0,0,0.948,16.816-2.543,24.426c-3.486,7.613-124.342,11.739-132.903,6.03
			c-8.565-5.709-9.553-14.569-5.254-21.243c4.299-6.674,47.121-47.275,47.121-47.275l93.147,36.917"/>
	</g>
	<g>
		<path fill="#D3A785" d="M235.01,240.188c0,0,2.538,12.341-3.462,14.464c-6.004,2.129-27.888-31.176-27.573-52.429
			c0.317-21.252,9.181-43.699,9.181-43.699l24.124,17.052L235.01,240.188z"/>
	</g>
	<g>
		<path fill="#D8BAA3" d="M236.913,207.793c0,0,2.539,12.337-3.461,14.467c-6.007,2.126-27.891-31.183-27.574-52.435
			c0.314-21.253,9.181-43.697,9.181-43.697l24.125,17.052L236.913,207.793z"/>
	</g>
	<g>
		<path fill="#D78F5C" d="M216.979,121.614c0,0,34.893-52.34,97.702-29.183c23.905,11.856,36.797,57.415,36.797,57.415
			l15.544,41.232c0,0-97.385,3.174-124.351,15.547C215.713,218.999,208.506,131.537,216.979,121.614z"/>
	</g>
	<g>
		<g>
			<path fill="#DDB391" d="M73.927,263.232c0,0-0.95,16.809,2.538,24.418c3.491,7.617,124.343,11.738,132.908,6.029
				s9.554-14.562,5.254-21.236c-4.299-6.676-47.125-47.278-47.125-47.278l-93.145,36.921"/>
		</g>
		<g>
			<path fill="#E5CCB5" d="M72.022,242.188c0,0-0.949,16.813,2.538,24.423c3.494,7.613,124.346,11.738,132.907,6.029
				c8.565-5.709,9.554-14.565,5.255-21.24c-4.299-6.674-47.121-47.275-47.121-47.275l-93.147,36.917"/>
		</g>
		<g>
			<path fill="#D3A785" d="M204.033,279.939c0,0-2.538,12.34,3.461,14.468c6.001,2.129,27.891-31.175,27.574-52.429
				c-0.317-21.252-9.181-43.699-9.181-43.699l-24.125,17.052L204.033,279.939z"/>
		</g>
		<g>
			<path fill="#D8BAA3" d="M202.133,258.898c0,0-2.543,12.342,3.458,14.469c6.004,2.126,27.888-31.179,27.573-52.432
				c-0.317-21.253-9.181-43.7-9.181-43.7l-24.124,17.056L202.133,258.898z"/>
		</g>
		<g>
			<path fill="#CC7B44" d="M222.063,172.721c0,0-34.893-52.336-97.702-29.183c-23.905,11.86-36.792,57.414-36.792,57.414
				l-15.547,41.236c0,0,97.384,3.173,124.349,15.546C223.333,270.102,230.537,182.644,222.063,172.721z"/>
		</g>
	</g>
	<g>
		<path fill="#939598" d="M200.677,270.523c0,0-0.759,69.687,97.097,82.934c3.229,0.438,18.959,0.579,23.167,0.16
			c107.67-10.787,102.844-84.667,102.844-84.667l-121.602-23.317L200.677,270.523z"/>
		<path fill="#3C2517" d="M311.464,357.273c-5.244,0-11.904-0.133-14.146-0.44c-28.621-3.873-67.062-15.345-87.671-47.994
			c-12.436-19.698-12.387-37.599-12.38-38.353c0.02-1.557,1.086-2.903,2.598-3.271l101.503-24.894
			c0.478-0.111,0.976-0.128,1.455-0.036l121.604,23.315c1.521,0.293,2.657,1.578,2.758,3.127
			c0.048,0.771,3.77,77.291-105.905,88.277C318.938,357.242,314.124,357.273,311.464,357.273z M204.19,273.169
			c0.959,12.601,10.008,65.532,94.044,76.914c1.568,0.212,7.384,0.38,13.229,0.38c4.248,0,7.663-0.089,9.139-0.234
			c42.928-4.305,73.785-19.787,89.241-44.779c8.925-14.441,10.357-28.133,10.544-33.684L302.269,249.12L204.19,273.169z"/>
	</g>
	<g>
		<path fill="#BDBEC0" d="M424.657,262.089c0,30.367-50.438,54.986-112.649,54.986c-62.217,0-112.653-24.619-112.653-54.986
			c0-30.371,50.437-54.987,112.653-54.987C374.221,207.103,424.657,231.718,424.657,262.089z"/>
		<path fill="#3C2517" d="M312.008,320.482c-65.08,0-116.059-25.649-116.059-58.394S246.928,203.7,312.008,203.7
			c65.076,0,116.055,25.646,116.055,58.389C428.062,294.832,377.084,320.482,312.008,320.482z M312.008,210.512
			c-60.24,0-109.244,23.14-109.244,51.578c0,28.439,49.003,51.578,109.244,51.578c60.234,0,109.243-23.139,109.243-51.578
			C421.251,233.652,372.242,210.512,312.008,210.512z"/>
	</g>
	<g>
		<path fill="#CC6028" d="M418.85,250.583c0,0,9.753,19.954-9.621,36.653c-20.064,23.303-118.485,46.974-183.184,8.27
			c-21.501-13.58-23.841-27.234-23.841-27.234s-0.436-12.357,12.711-14.441c13.146-2.085,22.489-14.258,23.872-16.002
			c1.386-1.737,3.112-5.565,20.759-5.565c17.646,0,33.562,0.697,42.902-2.781c9.347-3.478,23.528-18.436,47.056-5.565
			c23.522,12.868,26.48,0.724,37.713,8.346C402.567,243.886,418.85,250.583,418.85,250.583z"/>
	</g>
	<g opacity="0.72">
		<g>
			<path fill="#BA4326" d="M312.78,236.436c0,0-23.36,3.481-12.931,10.087c10.437,6.607,25.044,2.391,33.048-0.891
				c7.995-3.281,48.694,0.439,51.825,5.533c3.127,5.097,11.475,15.88,8.695,24.577c-2.784,8.695,17.389,1.158,20.521-10.204
				c3.131-11.363-25.738-17.429-47.307-25.353C345.071,232.261,338.168,220.042,312.78,236.436z"/>
		</g>
	</g>
	<g opacity="0.43">
		<g>
			<path fill="#BA4326" d="M353.161,253.229c0,0-34.783,4.638-43.13,7.886c-8.35,3.245-7.999,6.569-22.61,8.731
				c-14.604,2.166-45.564,10.162-17.389,20.248c28.173,10.09,65.395,4.524,76.523-7.994
				C357.688,269.578,377.507,254.273,353.161,253.229z"/>
		</g>
	</g>
	<g opacity="0.53">
		<g>
			<path fill="#F9C937" d="M360.218,276.157c0,0,3.37-1.275,6.26,3.632c3.132,4.086,9.573,9.008,6.227,13.016
				c-3.344,4.008-10.034-2.305-10.034-2.305l-6.316-11.695L360.218,276.157z"/>
		</g>
		<g>
			<path fill="#FED93A" d="M350.584,280.959c0,0-3.253,0.966-3.111,3.807c0.146,2.84,0.271,9.522,0.271,9.522l7.268-2.713
				l6.177-10.41c0,0,1.658-6.376-1.785-4.757C355.959,278.033,350.584,280.959,350.584,280.959z"/>
		</g>
		<g>
			<path fill="#FCE181" d="M347.743,294.289c0,0,8.799,11.646,15.015,10.954c6.216-0.688,9.945-12.438,9.945-12.438
				s-8.603-13.553-12.21-11.414C356.896,283.518,347.743,294.289,347.743,294.289z"/>
		</g>
	</g>
	<g opacity="0.6">
		<g>
			<path fill="#F9C937" d="M300.138,281.833c0,0,2.333,3.252-0.947,5.009c-2.464,2.12-4.482,7.07-9.214,3.373
				c-4.728-3.695-1.58-8.641-1.58-8.641l8.022-3.678L300.138,281.833z"/>
		</g>
		<g>
			<path fill="#FED93A" d="M292.45,272.339c0,0-2.019-3.098-4.47-3.458c-2.447-0.355-8.277-1.385-8.277-1.385l4.996,7.002
				l11.378,7.345c0,0,6.21,2.589,3.544-0.788C296.955,277.675,292.45,272.339,292.45,272.339z"/>
		</g>
		<g>
			<path fill="#FCE181" d="M279.703,267.497c0,0-7.089,5.919-4.249,11.635c2.846,5.709,14.522,11.084,14.522,11.084
				s8.832-5.418,5.658-9.028C292.46,277.574,279.703,267.497,279.703,267.497z"/>
		</g>
	</g>
	<g opacity="0.53">
		<g>
			<path fill="#F9C937" d="M287.003,253.992c0,0,0.901,3.271-3.547,5.002c-3.743,2.104-8.414,7.044-11.692,3.318
				c-3.281-3.728,2.609-8.651,2.609-8.651l10.564-3.627L287.003,253.992z"/>
		</g>
		<g>
			<path fill="#FED93A" d="M283.416,244.449c0,0-0.639-3.112-3.117-3.485c-2.48-0.373-8.297-1.443-8.297-1.443l1.91,7.035
				l8.671,7.42c0,0,5.453,2.625,4.249-0.767C285.632,249.811,283.416,244.449,283.416,244.449z"/>
		</g>
		<g>
			<path fill="#FCE181" d="M272.002,239.521c0,0-10.676,5.876-10.453,11.612c0.223,5.732,10.215,11.18,10.215,11.18
				s12.309-5.362,10.676-8.994C280.803,249.687,272.002,239.521,272.002,239.521z"/>
		</g>
	</g>
	<g opacity="0.53">
		<g>
			<path fill="#F9C937" d="M365.306,259.952c0,0-3.24,0.991-5.097-3.405c-2.205-3.688-7.27-8.218-3.632-11.601
				c3.635-3.383,8.716,2.378,8.716,2.378l3.916,10.453L365.306,259.952z"/>
		</g>
		<g>
			<path fill="#FED93A" d="M374.751,256.105c0,0,3.089-0.728,3.399-3.211c0.305-2.488,1.214-8.334,1.214-8.334l-6.985,2.107
				l-7.181,8.87c0,0-2.471,5.516,0.887,4.223C369.448,258.463,374.751,256.105,374.751,256.105z"/>
		</g>
		<g>
			<path fill="#FCE181" d="M379.364,244.56c0,0-6.167-10.502-11.894-10.129c-5.726,0.376-10.895,10.515-10.895,10.515
				s5.699,12.154,9.281,10.427C369.444,253.634,379.364,244.56,379.364,244.56z"/>
		</g>
	</g>
	<g opacity="0.54">
		<g>
			<path fill="#F9C937" d="M227.884,280.852c0,0-3.239,0.988-5.097-3.404c-2.206-3.684-7.271-8.219-3.636-11.6
				c3.639-3.386,8.719,2.373,8.719,2.373l3.917,10.459L227.884,280.852z"/>
		</g>
		<g>
			<path fill="#FED93A" d="M237.328,277.004c0,0,3.092-0.72,3.399-3.212c0.305-2.487,1.212-8.33,1.212-8.33l-6.982,2.101
				l-7.178,8.873c0,0-2.474,5.517,0.883,4.227C232.025,279.364,237.328,277.004,237.328,277.004z"/>
		</g>
		<g>
			<path fill="#FCE181" d="M241.939,265.462c0,0-6.164-10.509-11.89-10.129c-5.729,0.372-10.898,10.515-10.898,10.515
				s5.702,12.15,9.281,10.422C232.022,274.535,241.939,265.462,241.939,265.462z"/>
		</g>
	</g>
	<g opacity="0.25">
		<path fill="#BA4326" d="M381.593,267.723c0,0-10.087-1.725-19.13,10.978c-9.047,12.692-15.305,12.347-22.261,18.606
			c-6.959,6.26,32.348,10.088,41.391,0C390.635,287.218,391.328,261.102,381.593,267.723z"/>
	</g>
	<g opacity="0.72">
		<g>
			<path fill="#BA4326" d="M236.2,271.566c0,0-23.304-14.61-18.085,0c5.215,14.608,22.606,21.754,30.603,23.746
				c8.007,1.994,31.656,8.504,33.744,8.205c2.09-0.295,6.61,4.57,4.177-1.688c-2.439-6.263-47.308-15.054-45.917-22.31
				C242.111,272.264,236.2,271.566,236.2,271.566z"/>
		</g>
	</g>
	<g opacity="0.83">
		<g>
			<path fill="#3EA347" d="M296.588,295.741c0.426,3.135-1.279,5.954-3.804,6.296c-2.526,0.343-4.915-1.926-5.337-5.059
				c-0.426-3.139,1.275-5.957,3.798-6.306C293.777,290.336,296.169,292.604,296.588,295.741z"/>
		</g>
	</g>
	<g>
		<path fill="#BA4326" d="M378.612,290.785c0.354,2.617-1.875,5.084-4.983,5.507c-3.104,0.415-5.908-1.372-6.259-3.987
			c-0.356-2.625,1.876-5.086,4.974-5.515C375.454,286.375,378.255,288.161,378.612,290.785z"/>
	</g>
	<g>
		<path fill="#3F8C41" d="M339.764,259.148c2.045,1.199,2.415,4.359,0.835,7.062c-1.587,2.699-4.523,3.919-6.568,2.727
			c-2.048-1.201-2.417-4.361-0.835-7.064C334.782,259.17,337.724,257.954,339.764,259.148z"/>
	</g>
	<g>
		<path fill="#3EA347" d="M263.508,247.053c1.898-1.421,4.957-0.541,6.832,1.965c1.878,2.513,1.865,5.696-0.033,7.11
			c-1.891,1.427-4.955,0.54-6.83-1.964C261.6,251.656,261.614,248.473,263.508,247.053z"/>
	</g>
	<g>
		<path fill="#3F8C41" d="M362.427,224.694c2.33,0.419,3.77,3.259,3.214,6.344c-0.56,3.082-2.902,5.237-5.231,4.819
			c-2.332-0.425-3.772-3.268-3.216-6.347C357.755,226.428,360.095,224.272,362.427,224.694z"/>
	</g>
	<g>
		<path fill="#45B649" d="M288.871,234.803c2.861,0.518,4.729,3.438,4.165,6.521c-0.554,3.082-3.321,5.163-6.185,4.643
			c-2.855-0.517-4.725-3.435-4.164-6.517C283.247,236.368,286.018,234.287,288.871,234.803z"/>
	</g>
	<g>
		<path fill="#45B649" d="M383.12,262.43c2.716-1.045,5.823,0.483,6.946,3.412c1.122,2.922-0.167,6.135-2.876,7.178
			c-2.714,1.041-5.827-0.487-6.949-3.408C379.122,266.684,380.411,263.467,383.12,262.43z"/>
	</g>
	<g opacity="0.25">
		<path fill="#BA4326" d="M285.592,243.742c0,0-16.001-8.003-32.695,0c-16.695,8.002-27.826,5.215-27.479,12.171
			c0.348,6.959,40.351,18.959,52.522,6.177C290.113,249.307,295.328,248.61,285.592,243.742z"/>
	</g>
	<g>
		<path fill="#3F8C41" d="M239.321,264.582c-1.233,2.919-4.143,4.473-6.484,3.482c-2.346-0.996-3.248-4.166-2.016-7.08
			c1.236-2.912,4.139-4.471,6.484-3.479C239.654,258.504,240.555,261.67,239.321,264.582z"/>
	</g>
	<g>
		<path fill="#45B649" d="M259.312,294.386c-2.566,1.847-5.857,1.673-7.344-0.396c-1.492-2.07-0.617-5.244,1.949-7.098
			c2.564-1.848,5.855-1.67,7.35,0.396C262.76,289.361,261.883,292.536,259.312,294.386z"/>
	</g>
	<g>
		<path fill="#3F8C41" d="M334.926,302.759c0.317,2.347-1.939,4.591-5.048,5.009c-3.103,0.418-5.876-1.146-6.194-3.49
			c-0.315-2.346,1.943-4.59,5.047-5.01C331.834,298.846,334.605,300.414,334.926,302.759z"/>
	</g>
</g>
</svg>
